<svg width="22" height="22" viewBox="0 0 22 22" fill="none" xmlns="http://www.w3.org/2000/svg">
<path d="M18 14H19C19.5304 14 20.0391 13.7893 20.4142 13.4142C20.7893 13.0391 21 12.5304 21 12V3C21 2.46957 20.7893 1.96086 20.4142 1.58579C20.0391 1.21071 19.5304 1 19 1H10C9.46957 1 8.96086 1.21071 8.58579 1.58579C8.21071 1.96086 8 2.46957 8 3V4M12 8H3C1.89543 8 1 8.89543 1 10V19C1 20.1046 1.89543 21 3 21H12C13.1046 21 14 20.1046 14 19V10C14 8.89543 13.1046 8 12 8Z" stroke="#8D3030" stroke-width="2" stroke-linecap="round" stroke-linejoin="round"/>
</svg>
