<svg width="24" height="24" viewBox="0 0 24 24" fill="none" xmlns="http://www.w3.org/2000/svg">
<rect x="0.5" y="0.5" width="23" height="23" rx="1.5" stroke="black"/>
<path d="M3.49512 18V6.82812H6.56738C7.37142 6.82812 7.97656 7.05241 8.38281 7.50098C8.78906 7.94531 8.99219 8.59701 8.99219 9.45605V14.6865C8.99219 15.7445 8.80599 16.5612 8.43359 17.1367C8.06543 17.7122 7.41797 18 6.49121 18H3.49512ZM5.74219 16.0259H6.12939C6.53988 16.0259 6.74512 15.827 6.74512 15.4292V9.66553C6.74512 9.29313 6.69434 9.05404 6.59277 8.94824C6.49544 8.83822 6.29443 8.7832 5.98975 8.7832H5.74219V16.0259ZM9.90625 18V6.82812H14.375V8.98633H12.1787V11.1636H14.2861V13.2646H12.1787V15.8228H14.521V18H9.90625ZM16.292 18L14.9146 6.82178H17.041L17.8599 14.4263L18.5898 6.82178H20.7163L19.3389 18H16.292Z" fill="black"/>
</svg>
